<?xml version="1.0" encoding="UTF-8" standalone="no"?>
<svg width="74px" height="24px" viewBox="0 0 74 24" version="1.1" xmlns="http://www.w3.org/2000/svg" xmlns:xlink="http://www.w3.org/1999/xlink">
    <!-- Generator: sketchtool 3.8.3 (29802) - http://www.bohemiancoding.com/sketch -->
    <title>74AF9FED-70B2-41BA-B3EE-571E5DFB6FFE</title>
    <desc>Created with sketchtool.</desc>
    <defs></defs>
    <g id="Symbols" stroke="none" stroke-width="1" fill="none" fill-rule="evenodd">
        <g id="sign-up-section" transform="translate(-717.000000, -146.000000)" fill="#E9E9E9">
            <g id="unum-logo" transform="translate(717.969367, 146.235320)">
                <g id="Page-1">
                    <g id="logo_unum_reverse">
                        <path d="M39.0532703,23.2334117 C44.876627,23.2334117 46.1888091,19.444459 46.1888091,16.8432781 L46.1888091,9.18332275 L41.8951933,9.18332275 L41.8951933,16.5512191 C41.8951933,18.5712124 40.761546,19.4542269 39.0532703,19.4542269 C37.3410922,19.4542269 36.2084205,18.5712124 36.2084205,16.5512191 L36.2084205,9.18332275 L31.9148047,9.18332275 L31.9148047,16.8432781 C31.9148047,19.444459 33.2260111,23.2334117 39.0532703,23.2334117" id="Fill-1"></path>
                        <path d="M7.13944122,23.2334117 C12.9637736,23.2334117 14.2759556,19.444459 14.2759556,16.8432781 L14.2759556,9.18332275 L9.98331538,9.18332275 L9.98331538,16.5512191 C9.98331538,18.5712124 8.84869253,19.4542269 7.13944122,19.4542269 C5.42823874,19.4542269 4.29264025,18.5712124 4.29264025,16.5512191 L4.29264025,9.18332275 L0,9.18332275 L0,16.8432781 C0,19.444459 1.31608448,23.2334117 7.13944122,23.2334117" id="Fill-2"></path>
                        <path d="M23.0963558,8.65097445 C17.2710478,8.65097445 15.9569146,12.4389503 15.9569146,15.0401312 L15.9569146,22.7000866 L20.251506,22.7000866 L20.251506,15.3302367 C20.251506,13.3151273 21.3851532,12.4301592 23.0963558,12.4301592 C24.8065827,12.4301592 25.9392543,13.3151273 25.9392543,15.3302367 L25.9392543,22.7000866 L30.2328702,22.7000866 L30.2328702,15.0401312 C30.2328702,12.4389503 28.9197125,8.65097445 23.0963558,8.65097445" id="Fill-3"></path>
                        <path d="M59.0589253,10.8213928 C58.873561,10.5742659 57.7789378,8.65097445 54.265802,8.65097445 C50.687301,8.65097445 47.869768,10.4384927 47.869768,14.7578401 L47.869768,22.7000866 L52.0667994,22.7000866 L52.0667994,14.7500258 C52.0667994,13.3581058 52.7789876,12.2914556 54.5116534,12.2914556 C56.2482213,12.2914556 56.9584582,13.3581058 56.9584582,14.7500258 L56.9584582,22.7000866 L61.156465,22.7000866 L61.156465,14.7500258 C61.156465,13.3581058 61.8667019,12.2914556 63.601319,12.2914556 C65.3369115,12.2914556 66.0481238,13.3581058 66.0481238,14.7500258 L66.0481238,22.7000866 L70.2432043,22.7000866 L70.2432043,14.7578401 C70.2432043,10.4384927 67.4246954,8.65097445 63.8481458,8.65097445 C60.3398881,8.65097445 59.2423377,10.5742659 59.0589253,10.8213928" id="Fill-4"></path>
                        <path d="M19.5656591,3.48768396 C19.5656591,5.44125586 21.1266192,6.9435526 23.0944046,6.9435526 C25.0436535,6.9435526 26.5763212,5.44125586 26.5763212,3.48768396 C26.5763212,1.53704244 25.0436535,0.0357224572 23.0944046,0.0357224572 C21.1266192,0.0357224572 19.5656591,1.53704244 19.5656591,3.48768396" id="Fill-5"></path>
                        <path d="M35.5196469,3.48768396 C35.5196469,5.44125586 37.0825582,6.9435526 39.0513191,6.9435526 C40.9995924,6.9435526 42.5322601,5.44125586 42.5322601,3.48768396 C42.5322601,1.53704244 40.9995924,0.0357224572 39.0513191,0.0357224572 C37.0825582,0.0357224572 35.5196469,1.53704244 35.5196469,3.48768396" id="Fill-6"></path>
                        <path d="M55.5272527,3.48768396 C55.5272527,5.44125586 57.0901641,6.9435526 59.0589253,6.9435526 C61.0071983,6.9435526 62.5398662,5.44125586 62.5398662,3.48768396 C62.5398662,1.53704244 61.0071983,0.0357224572 59.0589253,0.0357224572 C57.0901641,0.0357224572 55.5272527,1.53704244 55.5272527,3.48768396" id="Fill-7"></path>
                        <path d="M71.4666065,9.08662096 C71.4031927,9.08662096 71.3446565,9.09931918 71.2988035,9.11201741 L71.2988035,9.72348539 L71.428558,9.72348539 C71.6587999,9.72348539 71.8383101,9.63948178 71.8383101,9.38454068 C71.8383101,9.14522811 71.6334341,9.08662096 71.4666065,9.08662096 L71.4666065,9.08662096 L71.4666065,9.08662096 Z M71.8802608,10.6533856 L71.3495347,9.88270151 L71.2988035,9.88270151 L71.2988035,10.6533856 L71.0607571,10.6533856 L71.0607571,8.9781977 C71.1729508,8.92349771 71.3280716,8.8893102 71.4870942,8.8893102 C71.8383101,8.8893102 72.0851369,9.08662096 72.0851369,9.38454068 C72.0851369,9.67269253 71.8802608,9.83679254 71.604166,9.86511935 L72.1690389,10.6533856 L71.8802608,10.6533856 L71.8802608,10.6533856 Z M71.5456303,8.54255119 C70.8422225,8.54255119 70.2822283,9.11592453 70.2822283,9.81530325 C70.2822283,10.5107748 70.8422225,11.0763339 71.5456303,11.0763339 C72.2441599,11.0763339 72.8051301,10.5107748 72.8051301,9.81530325 C72.8051301,9.11592453 72.2441599,8.54255119 71.5456303,8.54255119 L71.5456303,8.54255119 L71.5456303,8.54255119 Z M71.5456303,11.2941572 C70.7251507,11.2941572 70.0646695,10.6367803 70.0646695,9.81530325 C70.0646695,8.9948031 70.7251507,8.32863508 71.5456303,8.32863508 C72.3612318,8.32863508 73.0265911,8.9948031 73.0265911,9.81530325 C73.0265911,10.6367803 72.3612318,11.2941572 71.5456303,11.2941572 L71.5456303,11.2941572 L71.5456303,11.2941572 Z" id="Fill-8"></path>
                    </g>
                </g>
            </g>
        </g>
    </g>
</svg>