<?xml version="1.0" encoding="UTF-8" standalone="no"?>
<svg width="96px" height="96px" viewBox="0 0 96 96" version="1.1" xmlns="http://www.w3.org/2000/svg" xmlns:xlink="http://www.w3.org/1999/xlink" xmlns:sketch="http://www.bohemiancoding.com/sketch/ns">
    <!-- Generator: Sketch 3.0.4 (8053) - http://www.bohemiancoding.com/sketch -->
    <title>user-experience</title>
    <desc>Created with Sketch.</desc>
    <defs></defs>
    <g id="Icons-96x" stroke="none" stroke-width="1" fill="none" fill-rule="evenodd" sketch:type="MSPage">
        <g id="user-experience" sketch:type="MSArtboardGroup">
            <rect id="BG-2" fill="#396E93" sketch:type="MSShapeGroup" x="0" y="0" width="96" height="96"></rect>
            <path d="M81.2727125,24.65625 L75.9020843,24.65625 L62.890412,43.6788582 L50.1080568,24.65625 L42.7699122,24.65625 L42.7699122,52.8047342 C42.7699122,54.6644547 42.5379356,56.4695829 42.1103303,58.2210136 C41.6815429,59.9721461 40.9773387,61.5287745 40.0133798,62.8911973 C39.0494209,64.2533218 37.7701511,65.3559087 36.1859133,66.1992565 C34.6007889,67.0423059 32.6498212,67.4638307 30.3368517,67.4638307 C28.0235868,67.4638307 26.0729145,67.0423059 24.4886767,66.1992565 C22.9032569,65.3559087 21.6287153,64.2533218 20.6650519,62.8911973 C19.7010929,61.5287745 19.0107778,59.9721461 18.5831725,58.2210136 C18.1543851,56.4695829 17.946936,54.6644547 17.946936,52.8047342 L17.946936,24.65625 L13.21875,24.65625 L13.21875,53.3235109 C13.21875,55.2270843 13.5089424,57.2478971 14.0018558,59.3883358 C14.4938826,61.5287745 15.405536,63.507226 16.690716,65.323392 C17.9756006,67.1395579 19.7217788,68.6427873 21.9062007,69.8315884 C24.0909181,71.0203896 26.9015291,71.6152376 30.3291684,71.6152376 C33.712481,71.6152376 36.510385,71.0203896 38.7169703,69.8315884 C40.9226691,68.6427873 42.6697338,67.1395579 43.9549138,65.323392 C45.2400939,63.507226 46.197256,61.5287745 46.6904649,59.3883358 C47.1821962,57.2478971 47.4980982,55.2270843 47.4980982,53.3235109 L47.4980982,29.0803205 L59.8617134,46.8109092 L42.9584486,71.4923302 L48.5926732,71.4923302 L62.7586138,50.2746909 L76.9901581,71.4923302 L82.6243826,71.4923302 L65.789381,46.9436612 L81.2727125,24.65625 Z" id="Imported-Layers-4" fill="#FFFFFF" sketch:type="MSShapeGroup"></path>
        </g>
    </g>
</svg>