<?xml version="1.0" encoding="UTF-8" standalone="no"?>
<svg width="18px" height="18px" viewBox="0 0 18 18" version="1.1" xmlns="http://www.w3.org/2000/svg" xmlns:xlink="http://www.w3.org/1999/xlink">
    <!-- Generator: sketchtool 40.3 (33839) - http://www.bohemiancoding.com/sketch -->
    <title>6523FD4B-1B5F-4F2D-B91A-53717C4D8B95</title>
    <desc>Created with sketchtool.</desc>
    <defs></defs>
    <g id="UX-2016" stroke="none" stroke-width="1" fill="none" fill-rule="evenodd">
        <g id="journel" transform="translate(-1125.000000, -762.000000)" fill="#1F3340">
            <g id="search-button" transform="translate(991.000000, 758.000000)">
                <path d="M147.846154,10.9230769 C147.846154,7.09956712 144.746587,4 140.923077,4 C137.099567,4 134,7.09956712 134,10.9230769 C134,14.7465867 137.099567,17.8461538 140.923077,17.8461538 C144.746587,17.8461538 147.846154,14.7465867 147.846154,10.9230769 Z M136.153846,10.9230769 C136.153846,8.2891035 138.289104,6.15384615 140.923077,6.15384615 C143.55705,6.15384615 145.692308,8.2891035 145.692308,10.9230769 C145.692308,13.5570503 143.55705,15.6923077 140.923077,15.6923077 C138.289104,15.6923077 136.153846,13.5570503 136.153846,10.9230769 Z M150.424209,21.729637 C150.784693,22.090121 151.369153,22.090121 151.729637,21.729637 C152.090121,21.3691531 152.090121,20.7846931 151.729637,20.4242091 L145.729637,14.4242091 C145.369153,14.0637252 144.784693,14.0637252 144.424209,14.4242091 C144.063725,14.7846931 144.063725,15.3691531 144.424209,15.729637 L150.424209,21.729637 Z" id="10:10"></path>
            </g>
        </g>
    </g>
</svg>