<?xml version="1.0" encoding="UTF-8" standalone="no"?>
<svg width="147px" height="38px" viewBox="0 0 147 38" version="1.1" xmlns="http://www.w3.org/2000/svg" xmlns:xlink="http://www.w3.org/1999/xlink" xmlns:sketch="http://www.bohemiancoding.com/sketch/ns">
    <!-- Generator: Sketch 3.0.4 (8054) - http://www.bohemiancoding.com/sketch -->
    <title>coloniallife_logo</title>
    <desc>Created with Sketch.</desc>
    <defs></defs>
    <g id="Page-1" stroke="none" stroke-width="1" fill="none" fill-rule="evenodd" sketch:type="MSPage">
        <g id="landingpage2" sketch:type="MSArtboardGroup" transform="translate(-1118.000000, -1138.000000)" fill="#FFFFFF">
            <g id="footer" sketch:type="MSLayerGroup" transform="translate(51.000000, 1138.000000)">
                <g id="coloniallife_logo" transform="translate(1067.740484, -0.368077)" sketch:type="MSShapeGroup">
                    <g id="Group">
                        <path d="M14.9778801,23.8150048 C13.3522816,22.1019325 11.5009606,21.2288957 9.47143754,21.2288957 C7.73990788,21.2288957 6.25687104,21.8409215 5.06489751,23.0349719 C3.87589401,24.2380226 3.27396717,25.7370859 3.27396717,27.49416 C3.27396717,28.7152115 3.53830017,29.8232583 4.06597617,30.7682982 C4.59563218,31.7273386 5.35200077,32.4783703 6.31330168,33.0193931 C7.26965254,33.5544157 8.35767489,33.8324274 9.53380825,33.8324274 C10.5366896,33.8324274 11.4653202,33.6404193 12.2969296,33.2654035 C13.1087388,32.8913877 14.0136091,32.2063588 14.97491,31.2493184 C15.0739112,31.3513228 17.089574,33.4794125 17.1974853,33.5814168 C15.9005705,34.8524705 14.6581064,35.7435081 13.5027633,36.2375289 C12.3296,36.7405501 10.9722946,37.0015611 9.4763876,37.0015611 C6.7112862,37.0015611 4.41347011,36.0955229 2.65422014,34.3274483 C0.889030094,32.5543735 0,30.2582766 0,27.4841596 C0,25.692084 0.403924586,24.0790159 1.20385367,22.6869572 C2.00873281,21.2998987 3.17496605,20.1598506 4.66691299,19.3088147 C6.16777003,18.462779 7.8032686,18.036761 9.52588816,18.036761 C10.9930848,18.036761 12.4276111,18.3527743 13.7859065,18.9788007 C15.1244017,19.5968268 16.2866749,20.4858643 17.264806,21.616912 L14.9778801,23.8150048" id="Fill-1"></path>
                        <path d="M20.1348486,24.6910417 C18.6320116,26.0801004 17.8697029,27.8291741 17.8697029,29.8992615 C17.8697029,31.8293429 18.5429105,33.4964133 19.8734856,34.8474703 C21.2060408,36.192527 22.8296592,36.8875563 24.7067205,36.8875563 C25.9877951,36.8875563 27.1708585,36.572543 28.2331406,35.9575171 C29.2954226,35.3474914 30.1438623,34.4824549 30.7586592,33.3994092 C31.3694962,32.305363 31.6803597,31.1243132 31.6803597,29.8752605 C31.6803597,28.6352082 31.3754362,27.4591585 30.7636093,26.3881133 C30.1527724,25.313068 29.2954226,24.4520317 28.2024502,23.8290054 C27.1114578,23.202979 25.9343345,22.8919658 24.6978104,22.8919658 C22.985091,22.8919658 21.4485935,23.4989915 20.1348486,24.6910417 M22.0871508,32.7903835 L22.0871508,32.7903835 C21.398103,32.0463521 21.0446689,31.0753111 21.0446689,29.8892611 C21.0446689,28.7332123 21.403053,27.7721717 22.1010109,27.0311405 C22.8039189,26.2831089 23.695919,25.9070931 24.751271,25.9070931 C25.8264232,25.9070931 26.7293135,26.2791087 27.4223214,27.0161398 C28.1163192,27.7491708 28.4648032,28.7162116 28.4648032,29.8892611 C28.4648032,31.0563103 28.1103792,32.0273513 27.3975711,32.7763829 C26.6986231,33.5274146 25.802663,33.9014303 24.7374109,33.9014303 C23.6751288,33.9014303 22.7841187,33.5274146 22.0871508,32.7903835" id="Fill-4"></path>
                        <path d="M33.6643422,18.3667749 L36.8531684,18.3667749 L36.8531684,36.5435418 L33.6643422,36.5435418 L33.6643422,18.3667749 Z" id="Fill-5"></path>
                        <path d="M41.1092268,24.6910417 C39.6053997,26.0801004 38.8460611,27.8291741 38.8460611,29.8992615 C38.8460611,31.8293429 39.5202587,33.4964133 40.8488538,34.8474703 C42.1804189,36.192527 43.8050274,36.8875563 45.6860487,36.8875563 C46.9641532,36.8875563 48.1472167,36.572543 49.2094987,35.9575171 C50.2668307,35.3474914 51.1182404,34.4824549 51.7320474,33.3994092 C52.3448643,32.305363 52.6567179,31.1243132 52.6567179,29.8752605 C52.6567179,28.6352082 52.3488244,27.4591585 51.7389775,26.3881133 C51.1261605,25.313068 50.2668307,24.4520317 49.1797984,23.8290054 C48.086826,23.202979 46.9097026,22.8919658 45.6731786,22.8919658 C43.9654092,22.8919658 42.4279217,23.4989915 41.1092268,24.6910417 M43.067469,32.7903835 L43.067469,32.7903835 C42.3705011,32.0463521 42.0210271,31.0753111 42.0210271,29.8892611 C42.0210271,28.7332123 42.3754511,27.7721717 43.0783591,27.0311405 C43.7822571,26.2831089 44.6722772,25.9070931 45.7246592,25.9070931 C46.8047614,25.9070931 47.7027016,26.2791087 48.3966995,27.0161398 C49.0887174,27.7491708 49.4421514,28.7162116 49.4421514,29.8892611 C49.4421514,31.0563103 49.0857473,32.0273513 48.3778893,32.7763829 C47.6739913,33.5274146 46.7750611,33.9014303 45.712779,33.9014303 C44.649507,33.9014303 43.7594869,33.5274146 43.067469,32.7903835" id="Fill-6"></path>
                        <path d="M60.2342639,23.2659816 L60.2342639,23.2659816 C59.629367,23.5069918 58.9452693,23.9580108 58.1928607,24.5940377 L58.0651493,24.7060424 L58.0651493,23.2349803 L54.873353,23.2349803 L54.873353,36.5435418 L58.0651493,36.5435418 L58.0651493,31.2173171 C58.0651493,29.7952571 58.1156399,28.8982193 58.215631,28.465201 C58.4057132,27.6461664 58.7522171,26.9941389 59.2442527,26.5301193 C59.7442083,26.0630996 60.3491052,25.8280897 61.0460731,25.8280897 C61.5806792,25.8280897 62.0380644,25.9700957 62.4083286,26.2521076 C62.7696827,26.5431199 63.0320357,26.9621376 63.1795474,27.5021604 C63.326069,28.0431832 63.3963598,29.0932275 63.3963598,30.7272964 L63.3963598,36.5435418 L66.5396455,36.5435418 L66.5396455,27.7211696 C66.5396455,26.2011055 66.1594812,25.0310561 65.4050926,24.2650238 C64.5012124,23.346985 63.3923998,22.8909658 62.0994451,22.8909658 C61.4638579,22.8909658 60.8401508,23.0159711 60.2342639,23.2659816" id="Fill-7"></path>
                        <path d="M69.5661099,23.2349803 L72.7569161,23.2349803 L72.7569161,36.5435418 L69.5661099,36.5435418 L69.5661099,23.2349803 Z" id="Fill-8"></path>
                        <path d="M77.1297957,24.8490484 L77.1297957,24.8490484 C75.9348522,26.1601037 75.3289653,27.8601755 75.3289653,29.9162622 C75.3289653,31.8833452 75.9556424,33.5554157 77.1832564,34.8814717 C78.4267105,36.2105278 79.9047973,36.8875563 81.5957365,36.8875563 C82.3431949,36.8875563 83.052043,36.7515506 83.6975303,36.4735389 C84.3400476,36.2075276 84.989495,35.7545085 85.6369623,35.1394826 L85.7656638,35.007477 L85.7656638,36.5435418 L88.95746,36.5435418 L88.95746,23.2349803 L85.7656638,23.2349803 L85.7656638,24.8370479 L85.6339923,24.6920418 C85.0459256,24.0970167 84.4004383,23.6409974 83.7113905,23.3389847 C83.0243227,23.038972 82.2828043,22.8909658 81.4967353,22.8909658 C79.7879759,22.8909658 78.3217693,23.5519937 77.1297957,24.8490484 M78.5039313,29.8752605 C78.5039313,28.7082112 78.8524153,27.7351702 79.5493832,26.9851385 C80.2414011,26.2311067 81.1264711,25.858091 82.175883,25.858091 C83.2490552,25.858091 84.1489754,26.2211063 84.8508934,26.9681378 C85.5557814,27.7031688 85.9052554,28.6762099 85.9052554,29.8622599 C85.9052554,31.0753111 85.5557814,32.068353 84.8508934,32.8173846 C84.1489754,33.5694163 83.2549953,33.9474323 82.1897432,33.9474323 C81.1532014,33.9474323 80.2691214,33.5584159 79.5642334,32.7973838 C78.8603354,32.0373517 78.5039313,31.0533102 78.5039313,29.8752605" id="Fill-9"></path>
                        <path d="M92.1482663,18.037761 L95.3370925,18.037761 L95.3370925,36.5435418 L92.1482663,36.5435418 L92.1482663,18.037761 Z" id="Fill-10"></path>
                        <path d="M104.095722,18.0277606 L104.095722,36.5435418 L112.360336,36.5435418 L112.360336,33.3904088 L107.369689,33.3904088 L107.369689,18.0277606 L104.095722,18.0277606" id="Fill-11"></path>
                        <path d="M123.427671,18.321773 C122.923756,18.7397907 122.618832,19.316815 122.533691,20.0338453 C122.490131,20.3518587 122.45746,21.401903 122.44954,23.1519768 L122.44954,23.2359804 L121.258557,23.2359804 L121.258557,25.9310941 L122.44954,25.9310941 L122.44954,36.5435418 L125.644307,36.5435418 L125.644307,25.9310941 L127.756001,25.9310941 L127.756001,23.2359804 L125.644307,23.2359804 L125.653217,21.4689058 C125.653217,21.0528882 125.725488,20.7828769 125.871019,20.643871 C126.074961,20.4608633 126.380875,20.3678593 126.78678,20.3678593 C127.079823,20.3678593 127.456027,20.4418625 127.897572,20.5628676 L127.897572,18.1527659 C127.061013,17.8517532 126.290784,17.6927465 125.624506,17.6927465 C124.681026,17.6927465 123.940497,17.9027553 123.427671,18.321773" id="Fill-12"></path>
                        <path d="M130.511202,24.8990505 C129.218247,26.2311067 128.56187,27.9361787 128.56187,29.9622641 C128.56187,31.9313472 129.218247,33.5984176 130.516152,34.911473 C131.807127,36.2205282 133.506976,36.8875563 135.575109,36.8875563 C136.903704,36.8875563 138.063998,36.643546 139.030249,36.168526 C139.971749,35.7055065 140.783558,34.982476 141.462706,34.0254356 C141.290444,33.9474323 138.867887,32.8003839 138.781756,32.7593822 C137.877875,33.631419 136.795793,34.0764377 135.548379,34.0764377 C134.486097,34.0764377 133.596077,33.7874255 132.910989,33.206401 C132.231841,32.6313768 131.798216,31.8423435 131.643775,30.8683024 L131.627935,30.7742984 L142.389357,30.7742984 C142.397277,30.6532933 142.404207,30.2092746 142.404207,30.2092746 C142.404207,28.0221823 141.749809,26.2311067 140.450915,24.8990505 C139.15994,23.5659943 137.460091,22.8919658 135.384037,22.8919658 C133.442625,22.8919658 131.798216,23.5659943 130.511202,24.8990505 M135.543429,25.5860795 C136.417609,25.5860795 137.198728,25.8280897 137.862035,26.3031098 C138.525343,26.7841301 138.973818,27.4181568 139.19954,28.1751887 L139.231221,28.2811932 L131.737826,28.2811932 L131.791286,28.1671884 C132.169471,27.3291531 132.593195,26.7301278 133.038701,26.3881133 C133.755469,25.858091 134.600938,25.5860795 135.543429,25.5860795" id="Fill-13"></path>
                        <path d="M114.51559,13.8855858 C114.51559,15.6056584 115.511542,17.0087176 116.728265,17.0087176 C117.945979,17.0087176 118.93401,15.6056584 118.93401,13.8855858 C118.93401,12.1605131 117.945979,10.761454 116.728265,10.761454 C115.511542,10.761454 114.51559,12.1605131 114.51559,13.8855858" id="Fill-14"></path>
                        <path d="M97.936862,9.08738341 C97.936862,11.945504 98.7407511,14.362606 99.6812618,14.362606 C100.632663,14.362606 101.429622,11.945504 101.429622,9.08738341 C101.429622,6.22726274 100.632663,3.81316088 99.6812618,3.81316088 C98.7407511,3.81316088 97.936862,6.22726274 97.936862,9.08738341" id="Fill-15"></path>
                        <path d="M68.5770886,15.0536351 C68.5770886,16.5997004 69.8215328,17.8557534 71.3511001,17.8557534 C72.8846275,17.8557534 74.1280817,16.5997004 74.1280817,15.0536351 C74.1280817,13.5015696 72.8846275,12.2495168 71.3511001,12.2495168 C69.8215328,12.2495168 68.5770886,13.5015696 68.5770886,15.0536351" id="Fill-16"></path>
                        <path d="M81.6729573,14.9616312 C83.0065025,14.9616312 84.0974949,13.3565635 84.0974949,11.3904806 C84.0974949,9.41939742 83.0065025,7.81332965 81.6729573,7.81332965 C80.3354521,7.81332965 79.2464398,9.41939742 79.2464398,11.3904806 C79.2464398,13.3565635 80.3354521,14.9616312 81.6729573,14.9616312" id="Fill-17"></path>
                        <path d="M106.406408,4.33218278 C106.406408,6.51727497 107.334049,8.29735008 108.472562,8.29735008 C109.608105,8.29735008 110.537725,6.51727497 110.537725,4.33218278 C110.537725,2.14009029 109.652655,0.355014979 108.517112,0.355014979 C107.375629,0.355014979 106.406408,2.14009029 106.406408,4.33218278" id="Fill-18"></path>
                        <path d="M89.1366521,6.28826531 C89.1366521,8.61736358 89.9445012,10.5124435 90.9444126,10.5124435 C91.946304,10.5124435 92.7600932,8.61736358 92.7600932,6.28826531 C92.7600932,3.96016708 91.946304,2.06808726 90.9444126,2.06808726 C89.9445012,2.06808726 89.1366521,3.96016708 89.1366521,6.28826531" id="Fill-19"></path>
                        <path d="M115.132367,23.2349803 L118.326143,23.2349803 L118.326143,36.5435418 L115.132367,36.5435418 L115.132367,23.2349803 Z" id="Fill-20"></path>
                        <path d="M143.58133,35.2564875 L143.742702,35.2564875 C143.911994,35.2564875 144.072376,35.2024852 144.072376,35.054479 C144.072376,34.9304738 143.988225,34.8374698 143.765472,34.8374698 C143.674391,34.8374698 143.619941,34.8454702 143.58133,34.8534705 L143.58133,35.2564875 L143.58133,35.2564875 Z M143.58133,35.9845182 L143.343728,35.9845182 L143.343728,34.6904636 C143.473419,34.6674627 143.612021,34.651462 143.789233,34.651462 C144.004065,34.651462 144.110986,34.6904636 144.188207,34.7524662 C144.264438,34.8064685 144.317899,34.9074728 144.317899,35.031478 C144.317899,35.1864846 144.203057,35.2874888 144.072376,35.3334908 L144.072376,35.3494914 C144.180287,35.3964934 144.241668,35.4964976 144.280278,35.6675049 C144.317899,35.860513 144.348589,35.9385163 144.379279,35.9845182 L144.133757,35.9845182 C144.095146,35.9385163 144.064456,35.8225114 144.026835,35.6515042 C143.996145,35.504498 143.911994,35.4424954 143.734782,35.4424954 L143.58133,35.4424954 L143.58133,35.9845182 L143.58133,35.9845182 Z M142.821992,35.3024895 C142.821992,35.8765137 143.243736,36.3265327 143.812003,36.3265327 C144.356509,36.334533 144.771324,35.8765137 144.771324,35.3104898 C144.771324,34.7444659 144.356509,34.2874466 143.797153,34.2874466 C143.243736,34.2874466 142.821992,34.7444659 142.821992,35.3024895 L142.821992,35.3024895 Z M145.039617,35.3024895 C145.039617,36.0085192 144.502041,36.5505421 143.804083,36.5505421 C143.105135,36.5505421 142.553699,36.0085192 142.553699,35.3024895 C142.553699,34.6124603 143.105135,34.0704375 143.812003,34.0704375 C144.502041,34.0704375 145.039617,34.6124603 145.039617,35.3024895 L145.039617,35.3024895 Z" id="Fill-21"></path>
                    </g>
                </g>
            </g>
        </g>
    </g>
</svg>