<?xml version="1.0" encoding="UTF-8" standalone="no"?>
<svg width="108px" height="28px" viewBox="0 0 108 28" version="1.1" xmlns="http://www.w3.org/2000/svg" xmlns:xlink="http://www.w3.org/1999/xlink">
    <!-- Generator: sketchtool 3.8.3 (29802) - http://www.bohemiancoding.com/sketch -->
    <title>D2B3B39D-EFC1-42F2-B07E-507E393E6CC8</title>
    <desc>Created with sketchtool.</desc>
    <defs></defs>
    <g id="Symbols" stroke="none" stroke-width="1" fill="none" fill-rule="evenodd">
        <g id="sign-up-section" transform="translate(-596.000000, -141.000000)" fill="#E9E9E9">
            <g id="coloniallife-logo" transform="translate(596.000000, 141.000000)">
                <g id="design">
                    <g id="Desktop-HD">
                        <g id="logo-usage">
                            <g id="logo-box-hover-2">
                                <g id="logo-one-color" transform="translate(0.023258, 0.232653)">
                                    <path d="M11.0617836,17.4696989 C9.86121193,16.2130602 8.49393484,15.5726366 6.99504817,15.5726366 C5.71624193,15.5726366 4.62095791,16.0215933 3.74063618,16.8974992 C2.86250795,17.7800072 2.4179601,18.8796578 2.4179601,20.1685744 C2.4179601,21.0642871 2.61318094,21.8771043 3.00289148,22.5703463 C3.39406434,23.2738586 3.95267381,23.8247842 4.66263429,24.2216561 C5.36893889,24.6141265 6.17248839,24.8180643 7.04111148,24.8180643 C7.78178085,24.8180643 8.46761292,24.6772152 9.08179087,24.4021191 C9.68134552,24.1277566 10.3496296,23.6252479 11.0595901,22.9232028 C11.1327065,22.9980289 12.6213569,24.5591072 12.7010538,24.6339333 C11.7432286,25.5663255 10.8256175,26.2199537 9.97234887,26.5823469 C9.10591926,26.9513424 8.10349312,27.1428092 6.99870398,27.1428092 C4.95656231,27.1428092 3.25953012,26.4781772 1.96025129,25.1811911 C0.656585477,23.880537 0,22.1962157 0,20.1612386 C0,18.8466463 0.298315004,17.6633665 0.889095699,16.64221 C1.48353221,15.6247215 2.34484367,14.7884295 3.44670816,14.1641449 C4.55515313,13.5435282 5.76303642,13.2310191 7.03526219,13.2310191 C8.11884755,13.2310191 9.17830452,13.4628334 10.1814619,13.9220604 C11.1699959,14.3754186 12.0283827,15.0275797 12.7507729,15.8572693 L11.0617836,17.4696989" id="Fill-1"></path>
                                    <path d="M14.870418,18.1123233 C13.7605107,19.131279 13.1975143,20.4143269 13.1975143,21.932857 C13.1975143,23.3486847 13.6947059,24.5715782 14.6773907,25.5626576 C15.6615377,26.5493354 16.8606471,27.05918 18.2469344,27.05918 C19.1930609,27.05918 20.0668022,26.8280994 20.8513414,26.3769419 C21.6358806,25.9294523 22.2624883,25.2948974 22.7165413,24.5004201 C23.1684008,23.6978732 23.3972552,22.8315041 23.3972552,21.9152509 C23.3972552,21.0056 23.1720566,20.1428988 22.7201972,19.3572245 C22.2690688,18.5686159 21.6358806,17.9369954 20.8286753,17.4799692 C20.0229323,17.0207421 19.1535781,16.7925958 18.240354,16.7925958 C16.9754399,16.7925958 15.840673,17.2378846 14.870418,18.1123233 M16.3122739,24.0536641 L16.3122739,24.0536641 C15.8033836,23.5078736 15.5423579,22.7955582 15.5423579,21.9255211 C15.5423579,21.0774918 15.8070394,20.3725123 16.3225102,19.8289225 C16.8416368,19.2801976 17.5004158,19.004368 18.2798368,19.004368 C19.0738812,19.004368 19.740703,19.2772633 20.2525179,19.8179187 C20.765064,20.3556397 21.0224338,21.0650207 21.0224338,21.9255211 C21.0224338,22.78162 20.7606771,23.4939353 20.2342388,24.0433939 C19.7180368,24.5943195 19.0563332,24.868682 18.2696005,24.868682 C17.4850613,24.868682 16.8270135,24.5943195 16.3122739,24.0536641" id="Fill-4"></path>
                                    <polygon id="Fill-5" points="24.8625083 13.4731036 27.2175883 13.4731036 27.2175883 26.8068253 24.8625083 26.8068253"></polygon>
                                    <path d="M30.3608633,18.1123233 C29.2502249,19.131279 28.6894219,20.4143269 28.6894219,21.932857 C28.6894219,23.3486847 29.1873447,24.5715782 30.1685671,25.5626576 C31.151983,26.5493354 32.3518235,27.05918 33.7410355,27.05918 C34.6849686,27.05918 35.5587098,26.8280994 36.3439802,26.3769419 C37.1241324,25.9294523 37.7529336,25.2948974 38.2062555,24.5004201 C38.6595773,23.6978732 38.8891629,22.8315041 38.8891629,21.9152509 C38.8891629,21.0056 38.6617708,20.1428988 38.2113736,19.3572245 C37.758783,18.5686159 37.1241324,17.9369954 36.3213141,17.4799692 C35.5141088,17.0207421 34.6447545,16.7925958 33.7315304,16.7925958 C32.4702721,16.7925958 31.3347741,17.2378846 30.3608633,18.1123233 M31.8071061,24.0536641 L31.8071061,24.0536641 C31.2923666,23.5078736 31.0342656,22.7955582 31.0342656,21.9255211 C31.0342656,21.0774918 31.2960224,20.3725123 31.815149,19.8289225 C32.3350067,19.2801976 32.9923234,19.004368 33.7702821,19.004368 C34.5672511,19.004368 35.2304171,19.2772633 35.7429632,19.8179187 C36.254047,20.3556397 36.5150726,21.0650207 36.5150726,21.9255211 C36.5150726,22.78162 36.2518535,23.4939353 35.7290711,24.0433939 C35.2092133,24.5943195 34.5453162,24.868682 33.760777,24.868682 C32.9755066,24.868682 32.31819,24.5943195 31.8071061,24.0536641" id="Fill-6"></path>
                                    <path d="M44.4854938,17.0669583 L44.4854938,17.0669583 C44.0387525,17.2437533 43.533518,17.5746022 42.9778332,18.041165 L42.883513,18.1233271 L42.883513,17.044217 L40.5262395,17.044217 L40.5262395,26.8068253 L42.883513,26.8068253 L42.883513,22.8997279 C42.883513,21.8565637 42.9208024,21.198534 42.99465,20.8808898 C43.1350335,20.2800801 43.390941,19.8017797 43.7543296,19.4613942 C44.1235676,19.1188079 44.5710401,18.9464144 45.0850485,18.9464144 C45.4798772,18.9464144 45.8176751,19.0505841 46.0911305,19.2574564 C46.3580054,19.4709309 46.5517637,19.7783049 46.6607073,20.1744431 C46.7689196,20.5713151 46.8208323,21.341584 46.8208323,22.5402691 L46.8208323,26.8068253 L49.1422789,26.8068253 L49.1422789,20.3350992 C49.1422789,19.2200433 48.8615119,18.3617436 48.3043645,17.7998142 C47.6368115,17.1263791 46.8179078,16.7918622 45.8630072,16.7918622 C45.3935998,16.7918622 44.9329664,16.8835609 44.4854938,17.0669583" id="Fill-7"></path>
                                    <polygon id="Fill-8" points="51.3774479 17.044217 53.7339902 17.044217 53.7339902 26.8068253 51.3774479 26.8068253"></polygon>
                                    <path d="M56.9635424,18.2282304 L56.9635424,18.2282304 C56.0810272,19.1899661 55.6335546,20.4370682 55.6335546,21.9453281 C55.6335546,23.3882985 56.0963818,24.6148601 57.0030255,25.5875996 C57.9213676,26.56254 59.012996,27.05918 60.2618244,27.05918 C60.8138532,27.05918 61.337367,26.9594119 61.8140859,26.755474 C62.2886115,26.5603392 62.7682553,26.2280232 63.2471679,25.7768657 L63.3414881,25.6800319 L63.3414881,26.8068253 L65.6987615,26.8068253 L65.6987615,17.044217 L63.3414881,17.044217 L63.3414881,18.2194273 L63.2442434,18.1130569 C62.8099316,17.6765711 62.3332127,17.3420543 61.8243223,17.1205103 C61.3168943,16.9004335 60.7692524,16.7918622 60.1887078,16.7918622 C58.9267184,16.7918622 57.8438644,17.2767649 56.9635424,18.2282304 M57.9783984,21.9152509 C57.9783984,21.059152 58.2357682,20.3453695 58.7512388,19.7951774 C59.2615918,19.242051 59.9152527,18.9684221 60.6902868,18.9684221 C61.4828687,18.9684221 62.1474968,19.2347151 62.6658924,19.7827064 C63.1864813,20.3218946 63.4445822,21.0356771 63.4445822,21.9057143 C63.4445822,22.7955582 63.1864813,23.5240125 62.6658924,24.073471 C62.1474968,24.6251303 61.4872557,24.9024271 60.7005227,24.9024271 C59.9349938,24.9024271 59.2820641,24.6170608 58.7614752,24.0587992 C58.2416176,23.5012713 57.9783984,22.7794193 57.9783984,21.9152509" id="Fill-9"></path>
                                    <polygon id="Fill-10" points="68.0553038 13.2317527 70.410384 13.2317527 70.410384 26.8068253 68.0553038 26.8068253"></polygon>
                                    <polyline id="Fill-11" points="76.8789937 13.2244168 76.8789937 26.8068253 82.9827526 26.8068253 82.9827526 24.4938178 79.2969537 24.4938178 79.2969537 13.2244168 76.8789937 13.2244168"></polyline>
                                    <path d="M91.1564378,13.4400921 C90.784275,13.7467325 90.5590765,14.1700136 90.4961962,14.6959972 C90.464025,14.9292787 90.4398965,15.6995476 90.4340471,16.9833291 L90.4340471,17.0449506 L89.5544569,17.0449506 L89.5544569,19.0219741 L90.4340471,19.0219741 L90.4340471,26.8068253 L92.7935143,26.8068253 L92.7935143,19.0219741 L94.3530876,19.0219741 L94.3530876,17.0449506 L92.7935143,17.0449506 L92.800095,15.7486981 C92.800095,15.4435249 92.8534696,15.2454557 92.9609507,15.1434868 C93.1115706,15.0092399 93.3375004,14.9410161 93.6372777,14.9410161 C93.8537023,14.9410161 94.1315448,14.9953017 94.4576442,15.0840661 L94.4576442,13.3161155 C93.8398102,13.0953051 93.2709644,12.9786644 92.7788909,12.9786644 C92.0820913,12.9786644 91.5351807,13.1327181 91.1564378,13.4400921" id="Fill-12"></path>
                                    <path d="M96.3879174,18.2649098 C95.4330172,19.242051 94.9482552,20.492821 94.9482552,21.9790732 C94.9482552,23.4235108 95.4330172,24.6464044 96.3915736,25.6096073 C97.3450117,26.5698759 98.6004204,27.05918 100.127823,27.05918 C101.109045,27.05918 101.96597,26.8801842 102.679586,26.5317292 C103.374923,26.1920773 103.974478,25.6616921 104.476056,24.959647 C104.348834,24.9024271 102.559675,24.061 102.496064,24.0309228 C101.828511,24.6706128 101.029348,24.9970601 100.108081,24.9970601 C99.3235418,24.9970601 98.6662252,24.7850528 98.1602597,24.3588373 C97.6586811,23.9370234 97.3384311,23.3582213 97.2243693,22.6437052 L97.2126709,22.5747478 L105.160426,22.5747478 C105.166275,22.4859835 105.171393,22.1602698 105.171393,22.1602698 C105.171393,20.5559097 104.688094,19.242051 103.728806,18.2649098 C102.775368,17.2870351 101.519959,16.7925958 99.9867079,16.7925958 C98.5528947,16.7925958 97.3384311,17.2870351 96.3879174,18.2649098 M100.104425,18.7688858 C100.750044,18.7688858 101.326932,18.9464144 101.816812,19.2948694 C102.306692,19.647726 102.63791,20.1128216 102.804615,20.6681489 L102.828012,20.7459093 L97.2938303,20.7459093 L97.3333129,20.6622802 C97.6126178,20.0475322 97.9255559,19.6081121 98.2545799,19.3572245 C98.7839427,18.9684221 99.4083569,18.7688858 100.104425,18.7688858" id="Fill-13"></path>
                                    <path d="M84.5744971,10.1858894 C84.5744971,11.4476632 85.3100486,12.4768892 86.2086491,12.4768892 C87.1079814,12.4768892 87.837683,11.4476632 87.837683,10.1858894 C87.837683,8.92044759 87.1079814,7.89415593 86.2086491,7.89415593 C85.3100486,7.89415593 84.5744971,8.92044759 84.5744971,10.1858894" id="Fill-14"></path>
                                    <path d="M72.3304212,6.66612725 C72.3304212,8.76272584 72.9241263,10.5358115 73.6187323,10.5358115 C74.3213814,10.5358115 74.9099683,8.76272584 74.9099683,6.66612725 C74.9099683,4.56806143 74.3213814,2.79717653 73.6187323,2.79717653 C72.9241263,2.79717653 72.3304212,4.56806143 72.3304212,6.66612725" id="Fill-15"></path>
                                    <path d="M50.6470146,11.0427218 C50.6470146,12.1768511 51.5660884,13.0982394 52.6957369,13.0982394 C53.8283104,13.0982394 54.7466525,12.1768511 54.7466525,11.0427218 C54.7466525,9.90419103 53.8283104,8.98573704 52.6957369,8.98573704 C51.5660884,8.98573704 50.6470146,9.90419103 50.6470146,11.0427218" id="Fill-16"></path>
                                    <path d="M60.3188553,10.9752316 C61.3037334,10.9752316 62.1094762,9.79782057 62.1094762,8.35558371 C62.1094762,6.90967894 61.3037334,5.73153429 60.3188553,5.73153429 C59.3310523,5.73153429 58.5267715,6.90967894 58.5267715,8.35558371 C58.5267715,9.79782057 59.3310523,10.9752316 60.3188553,10.9752316" id="Fill-17"></path>
                                    <path d="M78.5855312,3.17790945 C78.5855312,4.78080237 79.270632,6.08659159 80.1114709,6.08659159 C80.9501161,6.08659159 81.6366794,4.78080237 81.6366794,3.17790945 C81.6366794,1.5698814 80.9830185,0.260424251 80.1443733,0.260424251 C79.3013407,0.260424251 78.5855312,1.5698814 78.5855312,3.17790945" id="Fill-18"></path>
                                    <path d="M65.8311024,4.61281039 C65.8311024,6.32134021 66.4277324,7.71149219 67.1662079,7.71149219 C67.9061464,7.71149219 68.5071634,6.32134021 68.5071634,4.61281039 C68.5071634,2.90501418 67.9061464,1.51706296 67.1662079,1.51706296 C66.4277324,1.51706296 65.8311024,2.90501418 65.8311024,4.61281039" id="Fill-19"></path>
                                    <polygon id="Fill-20" points="85.0300124 17.044217 87.3887483 17.044217 87.3887483 26.8068253 85.0300124 26.8068253"></polygon>
                                    <path d="M106.225732,25.6308814 L106.374159,25.6308814 C106.529897,25.6308814 106.67686,25.5817309 106.67686,25.4467505 C106.67686,25.3337777 106.599357,25.2486813 106.395362,25.2486813 C106.311278,25.2486813 106.261559,25.2560172 106.225732,25.2633531 L106.225732,25.6308814 L106.225732,25.6308814 Z M106.225732,26.2955134 L106.007114,26.2955134 L106.007114,25.1144344 C106.127025,25.093894 106.254247,25.0792221 106.416566,25.0792221 C106.613981,25.0792221 106.712688,25.1144344 106.783611,25.1709208 C106.853802,25.2200713 106.902059,25.3125036 106.902059,25.4262099 C106.902059,25.5670591 106.796772,25.6594914 106.67686,25.7020396 L106.67686,25.7159778 C106.77703,25.758526 106.832598,25.8502246 106.868426,26.0057456 C106.902059,26.1825407 106.931306,26.2536988 106.959821,26.2955134 L106.733891,26.2955134 C106.698064,26.2536988 106.669549,26.1473284 106.635184,25.9918074 C106.606669,25.8575606 106.529897,25.8003406 106.366847,25.8003406 L106.225732,25.8003406 L106.225732,26.2955134 L106.225732,26.2955134 Z M105.528933,25.6734296 C105.528933,26.1964788 105.915718,26.6072889 106.438501,26.6072889 C106.937886,26.6146248 107.319554,26.1964788 107.319554,25.6800319 C107.319554,25.1635849 106.937886,24.7469061 106.423878,24.7469061 C105.915718,24.7469061 105.528933,25.1635849 105.528933,25.6734296 L105.528933,25.6734296 L105.528933,25.6734296 Z M107.566688,25.6734296 C107.566688,26.3167875 107.07242,26.8119604 106.43119,26.8119604 C105.788496,26.8119604 105.281799,26.3167875 105.281799,25.6734296 C105.281799,25.0432763 105.788496,24.5481034 106.438501,24.5481034 C107.07242,24.5481034 107.566688,25.0432763 107.566688,25.6734296 L107.566688,25.6734296 L107.566688,25.6734296 Z" id="Fill-21"></path>
                                </g>
                            </g>
                        </g>
                    </g>
                </g>
            </g>
        </g>
    </g>
</svg>