<?xml version="1.0" encoding="UTF-8" standalone="no"?>
<svg width="164px" height="41px" viewBox="0 0 164 41" version="1.1" xmlns="http://www.w3.org/2000/svg" xmlns:xlink="http://www.w3.org/1999/xlink" xmlns:sketch="http://www.bohemiancoding.com/sketch/ns">
    <!-- Generator: Sketch 3.0.4 (8054) - http://www.bohemiancoding.com/sketch -->
    <title>enterprise_text_logo</title>
    <desc>Created with Sketch.</desc>
    <defs></defs>
    <g id="Page-1" stroke="none" stroke-width="1" fill="none" fill-rule="evenodd" sketch:type="MSPage">
        <g id="landingpage2" sketch:type="MSArtboardGroup" transform="translate(-174.000000, -44.000000)" fill="#FFFFFF">
            <g id="ux_logo-top-2" sketch:type="MSLayerGroup" transform="translate(51.000000, 34.000000)">
                <path d="M130.960044,24.9748724 L130.960044,23.3948724 L125.660044,23.3948724 L125.660044,18.6748724 L130.380044,18.6748724 L130.380044,17.1348724 L125.660044,17.1348724 L125.660044,12.7748724 L130.960044,12.7748724 L130.960044,11.2148724 L123.040044,11.2148724 L123.040044,24.9748724 L130.960044,24.9748724 Z M145.120044,24.9748724 L145.120044,11.2148724 L142.920044,11.2148724 L142.920044,19.8948724 C142.920044,20.7148724 143.000044,21.4948724 143.000044,21.4948724 L142.960044,21.4948724 C142.960044,21.4948724 142.640044,20.8548724 142.080044,20.0748724 L135.780044,11.2148724 L133.320044,11.2148724 L133.320044,24.9748724 L135.500044,24.9748724 L135.500044,15.7948724 C135.500044,14.9548724 135.440044,14.1548724 135.440044,14.1548724 L135.480044,14.1548724 C135.480044,14.1548724 135.840044,14.8548724 136.340044,15.5548724 L142.980044,24.9748724 L145.120044,24.9748724 Z M156.760044,12.7748724 L156.760044,11.2148724 L147.200044,11.2148724 L147.200044,12.7748724 L150.660044,12.7748724 L150.660044,24.9748724 L153.280044,24.9748724 L153.280044,12.7748724 L156.760044,12.7748724 Z M166.760044,24.9748724 L166.760044,23.3948724 L161.460044,23.3948724 L161.460044,18.6748724 L166.180044,18.6748724 L166.180044,17.1348724 L161.460044,17.1348724 L161.460044,12.7748724 L166.760044,12.7748724 L166.760044,11.2148724 L158.840044,11.2148724 L158.840044,24.9748724 L166.760044,24.9748724 Z M179.840044,24.9748724 L174.760044,18.8348724 L174.760044,18.7948724 C177.640044,18.6148724 179.320044,17.2948724 179.320044,15.0948724 C179.320044,12.5748724 177.360044,10.9348724 173.500044,10.9348724 C171.780044,10.9348724 170.180044,11.2748724 169.160044,11.7148724 L169.160044,24.9748724 L171.760044,24.9748724 L171.760044,18.5148724 L171.800044,18.5148724 L176.760044,24.9748724 L179.840044,24.9748724 Z M176.680044,15.1948724 C176.680044,17.0948724 175.520044,18.1948724 173.100044,18.1948724 C172.580044,18.1948724 172.080044,18.1148724 171.760044,18.0348724 L171.760044,12.6548724 C172.140044,12.4748724 172.780044,12.3348724 173.500044,12.3348724 C175.700044,12.3348724 176.680044,13.2548724 176.680044,15.1948724 Z M192.200044,15.2548724 C192.200044,12.8148724 190.500044,10.9348724 186.420044,10.9348724 C184.680044,10.9348724 183.060044,11.2748724 182.000044,11.7148724 L182.000044,24.9748724 L184.600044,24.9748724 L184.600044,19.4148724 C184.980044,19.4748724 185.640044,19.5148724 186.180044,19.5148724 C190.460044,19.5148724 192.200044,17.6148724 192.200044,15.2548724 Z M189.620044,15.2348724 C189.620044,16.9948724 188.680044,18.1348724 186.120044,18.1348724 C185.580044,18.1348724 185.000044,18.0748724 184.600044,17.9948724 L184.600044,12.6148724 C184.940044,12.4748724 185.600044,12.3348724 186.340044,12.3348724 C188.640044,12.3348724 189.620044,13.3548724 189.620044,15.2348724 Z M205.200044,24.9748724 L200.120044,18.8348724 L200.120044,18.7948724 C203.000044,18.6148724 204.680044,17.2948724 204.680044,15.0948724 C204.680044,12.5748724 202.720044,10.9348724 198.860044,10.9348724 C197.140044,10.9348724 195.540044,11.2748724 194.520044,11.7148724 L194.520044,24.9748724 L197.120044,24.9748724 L197.120044,18.5148724 L197.160044,18.5148724 L202.120044,24.9748724 L205.200044,24.9748724 Z M202.040044,15.1948724 C202.040044,17.0948724 200.880044,18.1948724 198.460044,18.1948724 C197.940044,18.1948724 197.440044,18.1148724 197.120044,18.0348724 L197.120044,12.6548724 C197.500044,12.4748724 198.140044,12.3348724 198.860044,12.3348724 C201.060044,12.3348724 202.040044,13.2548724 202.040044,15.1948724 Z M210.080044,24.9748724 L210.080044,11.2148724 L207.440044,11.2148724 L207.440044,24.9748724 L210.080044,24.9748724 Z M221.680044,20.9948724 C221.680044,16.4348724 215.320044,17.7148724 215.320044,14.7548724 C215.320044,13.4748724 216.380044,12.5748724 218.000044,12.5748724 C219.040044,12.5748724 220.080044,12.9148724 220.620044,13.2148724 L221.260044,11.7148724 C220.560044,11.3348724 219.280044,10.9348724 217.660044,10.9348724 C214.620044,10.9348724 212.700044,12.8348724 212.700044,15.0148724 C212.700044,19.2948724 218.920044,18.1348724 218.920044,21.1548724 C218.920044,22.5148724 217.680044,23.4548724 215.940044,23.4548724 C214.780044,23.4548724 213.660044,23.1148724 213.060044,22.7948724 L212.360044,24.4748724 C213.180044,24.8948724 214.640044,25.2548724 216.440044,25.2548724 C219.500044,25.2548724 221.680044,23.4348724 221.680044,20.9948724 Z M232.080044,24.9748724 L232.080044,23.3948724 L226.780044,23.3948724 L226.780044,18.6748724 L231.500044,18.6748724 L231.500044,17.1348724 L226.780044,17.1348724 L226.780044,12.7748724 L232.080044,12.7748724 L232.080044,11.2148724 L224.160044,11.2148724 L224.160044,24.9748724 L232.080044,24.9748724 Z M133.580044,45.0548724 L133.580044,35.2148724 L131.160044,35.2148724 L131.160044,45.0148724 C131.160044,46.5748724 129.840044,47.4148724 128.420044,47.4148724 C127.000044,47.4148724 125.660044,46.5948724 125.660044,45.0348724 L125.660044,35.2148724 L123.040044,35.2148724 L123.040044,45.0548724 C123.040044,47.4948724 125.140044,49.2548724 128.300044,49.2548724 C131.480044,49.2548724 133.580044,47.4948724 133.580044,45.0548724 Z M145.100044,44.9948724 C145.100044,40.4348724 138.740044,41.7148724 138.740044,38.7548724 C138.740044,37.4748724 139.800044,36.5748724 141.420044,36.5748724 C142.460044,36.5748724 143.500044,36.9148724 144.040044,37.2148724 L144.680044,35.7148724 C143.980044,35.3348724 142.700044,34.9348724 141.080044,34.9348724 C138.040044,34.9348724 136.120044,36.8348724 136.120044,39.0148724 C136.120044,43.2948724 142.340044,42.1348724 142.340044,45.1548724 C142.340044,46.5148724 141.100044,47.4548724 139.360044,47.4548724 C138.200044,47.4548724 137.080044,47.1148724 136.480044,46.7948724 L135.780044,48.4748724 C136.600044,48.8948724 138.060044,49.2548724 139.860044,49.2548724 C142.920044,49.2548724 145.100044,47.4348724 145.100044,44.9948724 Z M155.500044,48.9748724 L155.500044,47.3948724 L150.200044,47.3948724 L150.200044,42.6748724 L154.920044,42.6748724 L154.920044,41.1348724 L150.200044,41.1348724 L150.200044,36.7748724 L155.500044,36.7748724 L155.500044,35.2148724 L147.580044,35.2148724 L147.580044,48.9748724 L155.500044,48.9748724 Z M168.580044,48.9748724 L163.500044,42.8348724 L163.500044,42.7948724 C166.380044,42.6148724 168.060044,41.2948724 168.060044,39.0948724 C168.060044,36.5748724 166.100044,34.9348724 162.240044,34.9348724 C160.520044,34.9348724 158.920044,35.2748724 157.900044,35.7148724 L157.900044,48.9748724 L160.500044,48.9748724 L160.500044,42.5148724 L160.540044,42.5148724 L165.500044,48.9748724 L168.580044,48.9748724 Z M165.420044,39.1948724 C165.420044,41.0948724 164.260044,42.1948724 161.840044,42.1948724 C161.320044,42.1948724 160.820044,42.1148724 160.500044,42.0348724 L160.500044,36.6548724 C160.880044,36.4748724 161.520044,36.3348724 162.240044,36.3348724 C164.440044,36.3348724 165.420044,37.2548724 165.420044,39.1948724 Z M184.700044,48.9748724 L184.700044,47.3948724 L179.400044,47.3948724 L179.400044,42.6748724 L184.120044,42.6748724 L184.120044,41.1348724 L179.400044,41.1348724 L179.400044,36.7748724 L184.700044,36.7748724 L184.700044,35.2148724 L176.780044,35.2148724 L176.780044,48.9748724 L184.700044,48.9748724 Z M198.080044,48.9748724 L193.400044,41.6148724 L197.700044,35.2148724 L195.100044,35.2148724 L192.100044,39.9948724 L192.060044,39.9948724 L189.300044,35.2148724 L186.420044,35.2148724 L190.620044,41.8948724 L185.960044,48.9748724 L188.720044,48.9748724 L191.920044,43.6748724 L191.960044,43.6748724 L195.080044,48.9748724 L198.080044,48.9748724 Z M210.100044,39.2548724 C210.100044,36.8148724 208.400044,34.9348724 204.320044,34.9348724 C202.580044,34.9348724 200.960044,35.2748724 199.900044,35.7148724 L199.900044,48.9748724 L202.500044,48.9748724 L202.500044,43.4148724 C202.880044,43.4748724 203.540044,43.5148724 204.080044,43.5148724 C208.360044,43.5148724 210.100044,41.6148724 210.100044,39.2548724 Z M207.520044,39.2348724 C207.520044,40.9948724 206.580044,42.1348724 204.020044,42.1348724 C203.480044,42.1348724 202.900044,42.0748724 202.500044,41.9948724 L202.500044,36.6148724 C202.840044,36.4748724 203.500044,36.3348724 204.240044,36.3348724 C206.540044,36.3348724 207.520044,37.3548724 207.520044,39.2348724 Z M220.300044,48.9748724 L220.300044,47.3948724 L215.000044,47.3948724 L215.000044,42.6748724 L219.720044,42.6748724 L219.720044,41.1348724 L215.000044,41.1348724 L215.000044,36.7748724 L220.300044,36.7748724 L220.300044,35.2148724 L212.380044,35.2148724 L212.380044,48.9748724 L220.300044,48.9748724 Z M233.380044,48.9748724 L228.300044,42.8348724 L228.300044,42.7948724 C231.180044,42.6148724 232.860044,41.2948724 232.860044,39.0948724 C232.860044,36.5748724 230.900044,34.9348724 227.040044,34.9348724 C225.320044,34.9348724 223.720044,35.2748724 222.700044,35.7148724 L222.700044,48.9748724 L225.300044,48.9748724 L225.300044,42.5148724 L225.340044,42.5148724 L230.300044,48.9748724 L233.380044,48.9748724 Z M230.220044,39.1948724 C230.220044,41.0948724 229.060044,42.1948724 226.640044,42.1948724 C226.120044,42.1948724 225.620044,42.1148724 225.300044,42.0348724 L225.300044,36.6548724 C225.680044,36.4748724 226.320044,36.3348724 227.040044,36.3348724 C229.240044,36.3348724 230.220044,37.2548724 230.220044,39.1948724 Z M238.260044,48.9748724 L238.260044,35.2148724 L235.620044,35.2148724 L235.620044,48.9748724 L238.260044,48.9748724 Z M249.180044,48.9748724 L249.180044,47.3948724 L243.880044,47.3948724 L243.880044,42.6748724 L248.600044,42.6748724 L248.600044,41.1348724 L243.880044,41.1348724 L243.880044,36.7748724 L249.180044,36.7748724 L249.180044,35.2148724 L241.260044,35.2148724 L241.260044,48.9748724 L249.180044,48.9748724 Z M263.340044,48.9748724 L263.340044,35.2148724 L261.140044,35.2148724 L261.140044,43.8948724 C261.140044,44.7148724 261.220044,45.4948724 261.220044,45.4948724 L261.180044,45.4948724 C261.180044,45.4948724 260.860044,44.8548724 260.300044,44.0748724 L254.000044,35.2148724 L251.540044,35.2148724 L251.540044,48.9748724 L253.720044,48.9748724 L253.720044,39.7948724 C253.720044,38.9548724 253.660044,38.1548724 253.660044,38.1548724 L253.700044,38.1548724 C253.700044,38.1548724 254.060044,38.8548724 254.560044,39.5548724 L261.200044,48.9748724 L263.340044,48.9748724 Z M275.660044,48.4748724 L275.000044,46.9348724 C274.460044,47.2148724 273.840044,47.4348724 272.880044,47.4348724 C270.120044,47.4348724 268.620044,44.8348724 268.620044,42.0748724 C268.620044,39.3548724 269.960044,36.6548724 272.840044,36.6548724 C273.820044,36.6548724 274.560044,36.9348724 275.020044,37.1748724 L275.660044,35.7148724 C274.900044,35.2548724 273.800044,34.9348724 272.300044,34.9348724 C268.220044,34.9348724 265.860044,38.3348724 265.860044,42.0948724 C265.860044,45.9348724 268.280044,49.2548724 272.340044,49.2548724 C273.760044,49.2548724 274.980044,48.9148724 275.660044,48.4748724 L275.660044,48.4748724 Z M285.760044,48.9748724 L285.760044,47.3948724 L280.460044,47.3948724 L280.460044,42.6748724 L285.180044,42.6748724 L285.180044,41.1348724 L280.460044,41.1348724 L280.460044,36.7748724 L285.760044,36.7748724 L285.760044,35.2148724 L277.840044,35.2148724 L277.840044,48.9748724 L285.760044,48.9748724 Z" id="enterprise_text_logo" sketch:type="MSShapeGroup"></path>
            </g>
        </g>
    </g>
</svg>