<?xml version="1.0" encoding="UTF-8" standalone="no"?>
<svg width="121px" height="40px" viewBox="0 0 121 40" version="1.1" xmlns="http://www.w3.org/2000/svg" xmlns:xlink="http://www.w3.org/1999/xlink" xmlns:sketch="http://www.bohemiancoding.com/sketch/ns">
    <!-- Generator: Sketch 3.0.4 (8054) - http://www.bohemiancoding.com/sketch -->
    <title>unum_logo</title>
    <desc>Created with Sketch.</desc>
    <defs></defs>
    <g id="Page-1" stroke="none" stroke-width="1" fill="none" fill-rule="evenodd" sketch:type="MSPage">
        <g id="landingpage2" sketch:type="MSArtboardGroup" transform="translate(-1286.000000, -1140.000000)" fill="#FFFFFF">
            <g id="footer" sketch:type="MSLayerGroup" transform="translate(51.000000, 1138.000000)">
                <g id="unum_logo" transform="translate(1235.730725, 2.330450)" sketch:type="MSShapeGroup">
                    <path d="M63.4116013,37.7276465 C72.8671059,37.7276465 74.997723,31.5749442 74.997723,27.3510086 L74.997723,14.9123667 L68.0260903,14.9123667 L68.0260903,26.8767477 C68.0260903,30.15692 66.1853638,31.5908058 63.4116013,31.5908058 C60.6315024,31.5908058 58.79236,30.15692 58.79236,26.8767477 L58.79236,14.9123667 L51.8207273,14.9123667 L51.8207273,27.3510086 C51.8207273,31.5749442 53.9497603,37.7276465 63.4116013,37.7276465" id="Fill-1"></path>
                    <path d="M11.5924581,37.7276465 C21.0495468,37.7276465 23.1801639,31.5749442 23.1801639,27.3510086 L23.1801639,14.9123667 L16.2101153,14.9123667 L16.2101153,26.8767477 C16.2101153,30.15692 14.3678047,31.5908058 11.5924581,31.5908058 C8.81394328,31.5908058 6.9700486,30.15692 6.9700486,26.8767477 L6.9700486,14.9123667 L0,14.9123667 L0,27.3510086 C0,31.5749442 2.13695354,37.7276465 11.5924581,37.7276465" id="Fill-2"></path>
                    <path d="M37.5020297,14.0479112 C28.0433569,14.0479112 25.9095716,20.1990274 25.9095716,24.4229631 L25.9095716,36.8616049 L32.8827884,36.8616049 L32.8827884,24.8940516 C32.8827884,21.6218101 34.7235149,20.184752 37.5020297,20.184752 C40.2789604,20.184752 42.1181028,21.6218101 42.1181028,24.8940516 L42.1181028,36.8616049 L49.0897355,36.8616049 L49.0897355,24.4229631 C49.0897355,20.1990274 46.9575343,14.0479112 37.5020297,14.0479112" id="Fill-3"></path>
                    <path d="M95.895196,17.5723517 C95.5942166,17.171054 93.8168542,14.0479112 88.1125031,14.0479112 C82.3020171,14.0479112 77.7271307,16.9505782 77.7271307,23.9645637 L77.7271307,36.8616049 L84.5419373,36.8616049 L84.5419373,23.9518745 C84.5419373,21.691601 85.6983317,19.9595177 88.5116968,19.9595177 C91.3313983,19.9595177 92.4846245,21.691601 92.4846245,23.9518745 L92.4846245,36.8616049 L99.3010152,36.8616049 L99.3010152,23.9518745 C99.3010152,21.691601 100.454241,19.9595177 103.270775,19.9595177 C106.088892,19.9595177 107.243702,21.691601 107.243702,23.9518745 L107.243702,36.8616049 L114.055341,36.8616049 L114.055341,23.9645637 C114.055341,16.9505782 109.47887,14.0479112 103.671552,14.0479112 C97.9751219,14.0479112 96.1930072,17.171054 95.895196,17.5723517" id="Fill-4"></path>
                    <path d="M31.7691647,5.66348625 C31.7691647,8.83579991 34.3037279,11.2753091 37.4988615,11.2753091 C40.6638972,11.2753091 43.1525214,8.83579991 43.1525214,5.66348625 C43.1525214,2.49593107 40.6638972,0.0580080212 37.4988615,0.0580080212 C34.3037279,0.0580080212 31.7691647,2.49593107 31.7691647,5.66348625" id="Fill-5"></path>
                    <path d="M57.673984,5.66348625 C57.673984,8.83579991 60.2117153,11.2753091 63.4084331,11.2753091 C66.5718847,11.2753091 69.0605089,8.83579991 69.0605089,5.66348625 C69.0605089,2.49593107 66.5718847,0.0580080212 63.4084331,0.0580080212 C60.2117153,0.0580080212 57.673984,2.49593107 57.673984,5.66348625" id="Fill-6"></path>
                    <path d="M90.1607469,5.66348625 C90.1607469,8.83579991 92.6984782,11.2753091 95.895196,11.2753091 C99.0586476,11.2753091 101.547272,8.83579991 101.547272,5.66348625 C101.547272,2.49593107 99.0586476,0.0580080212 95.895196,0.0580080212 C92.6984782,0.0580080212 90.1607469,2.49593107 90.1607469,5.66348625" id="Fill-7"></path>
                    <path d="M116.041805,14.7553372 C115.938838,14.7553372 115.843792,14.7759572 115.769339,14.7965773 L115.769339,15.7895114 L115.980025,15.7895114 C116.353873,15.7895114 116.645348,15.653102 116.645348,15.239115 C116.645348,14.8505066 116.312686,14.7553372 116.041805,14.7553372 L116.041805,14.7553372 Z M116.713464,17.2995327 L115.851712,16.048055 L115.769339,16.048055 L115.769339,17.2995327 L115.382818,17.2995327 L115.382818,14.5792738 C115.56499,14.490449 115.816862,14.4349335 116.075071,14.4349335 C116.645348,14.4349335 117.046125,14.7553372 117.046125,15.239115 C117.046125,15.7070313 116.713464,15.9735056 116.265163,16.0195042 L117.182358,17.2995327 L116.713464,17.2995327 L116.713464,17.2995327 Z M116.170117,13.8718478 C115.027979,13.8718478 114.118705,14.8029219 114.118705,15.9386102 C114.118705,17.0679539 115.027979,17.9863387 116.170117,17.9863387 C117.304334,17.9863387 118.215193,17.0679539 118.215193,15.9386102 C118.215193,14.8029219 117.304334,13.8718478 116.170117,13.8718478 L116.170117,13.8718478 Z M116.170117,18.3400516 C114.837887,18.3400516 113.76545,17.2725681 113.76545,15.9386102 C113.76545,14.6062385 114.837887,13.5244795 116.170117,13.5244795 C117.494426,13.5244795 118.574784,14.6062385 118.574784,15.9386102 C118.574784,17.2725681 117.494426,18.3400516 116.170117,18.3400516 L116.170117,18.3400516 Z" id="Fill-8"></path>
                </g>
            </g>
        </g>
    </g>
</svg>