<?xml version="1.0" encoding="UTF-8" standalone="no"?>
<svg width="59px" height="40px" viewBox="0 0 59 40" version="1.1" xmlns="http://www.w3.org/2000/svg" xmlns:xlink="http://www.w3.org/1999/xlink">
    <!-- Generator: sketchtool 40.3 (33839) - http://www.bohemiancoding.com/sketch -->
    <title>9F9C165B-4795-4A6E-845D-C75E43BF44FB</title>
    <desc>Created with sketchtool.</desc>
    <defs>
        <path d="M57.1003758,0.0772691573 L52.5942054,0.0772691573 L41.6768032,15.8541515 L30.9517633,0.0772691573 L24.7953271,0.0772691573 L24.7953271,23.4224188 C24.7953271,24.9653359 24.6004338,26.4622203 24.2418638,27.9147161 C23.8816064,29.3672118 23.2910205,30.6577712 22.4819178,31.7880381 C21.6728151,32.917483 20.5996361,33.8323827 19.2708179,34.5319152 C17.9403122,35.2306257 16.3035456,35.5808029 14.3630491,35.5808029 C12.4217088,35.5808029 10.7849422,35.2306257 9.45612393,34.5319152 C8.12561827,33.8323827 7.0566578,32.917483 6.24755511,31.7880381 C5.43929613,30.6577712 4.85967825,29.3672118 4.50110824,27.9147161 C4.14085084,26.4622203 3.96704985,24.9653359 3.96704985,23.4224188 L3.96704985,0.0772691573 L0,0.0772691573 L0,23.8531533 C0,25.4314169 0.243827607,27.1075 0.657237736,28.8830466 C1.06980417,30.6577712 1.83503476,32.2985078 2.91327587,33.8052563 C3.99151698,35.3111829 5.45617001,36.5581756 7.28951738,37.5437683 C9.12202105,38.5301831 11.4801462,39.0233905 14.3562995,39.0233905 C17.1953303,39.0233905 19.5424874,38.5301831 21.394396,37.5437683 C23.2446173,36.5581756 24.7109577,35.3111829 25.7891988,33.8052563 C26.8674399,32.2985078 27.6706367,30.6577712 28.0840469,28.8830466 C28.497457,27.1075 28.762377,25.4314169 28.762377,23.8531533 L28.762377,3.74673212 L39.1355964,18.4517104 L24.9530979,38.9214609 L29.6803162,38.9214609 L41.5662792,21.3246434 L53.5070824,38.9214609 L58.2351444,38.9214609 L44.1091734,18.56186 L57.1003758,0.0772691573 L57.1003758,0.0772691573 Z" id="path-1"></path>
    </defs>
    <g id="UX-2016" stroke="none" stroke-width="1" fill="none" fill-rule="evenodd">
        <g id="journel" transform="translate(-691.000000, -24.000000)">
            <g id="uxenterprise" transform="translate(691.000000, 24.000000)">
                <path d="M57.0789897,0 L52.574507,0 L41.6611938,15.93374 L30.9401708,0 L24.7860404,0 L24.7860404,23.5772529 C24.7860404,25.1355101 24.5912201,26.6472769 24.2327843,28.1142138 C23.8726619,29.5811506 23.2822972,30.884541 22.4734975,32.0260453 C21.6646979,33.1667194 20.5919209,34.0907153 19.2636003,34.7972027 C17.933593,35.5028599 16.2974393,35.8565187 14.3576696,35.8565187 C12.4170565,35.8565187 10.7809029,35.5028599 9.45258229,34.7972027 C8.12257495,34.0907153 7.05401484,33.1667194 6.24521519,32.0260453 C5.43725892,30.884541 4.85785814,29.5811506 4.49942242,28.1142138 C4.13929995,26.6472769 3.96556406,25.1355101 3.96556406,23.5772529 L3.96556406,0 L0,0 L0,24.0122699 C0,25.606225 0.243736285,27.2989721 0.656991578,29.0921716 C1.06940349,30.884541 1.83434747,32.5415902 2.91218475,34.0633192 C3.99002202,35.584218 5.45412649,36.8436086 7.2867872,37.8390004 C9.11860454,38.8352224 11.4758465,39.3333333 14.3509226,39.3333333 C17.18889,39.3333333 19.5351681,38.8352224 21.3863831,37.8390004 C23.2359114,36.8436086 24.7017026,35.584218 25.7795399,34.0633192 C26.8573771,32.5415902 27.6602731,30.884541 28.0735284,29.0921716 C28.4867837,27.2989721 28.7516045,25.606225 28.7516045,24.0122699 L28.7516045,3.70594567 L39.1209388,18.5571245 L24.9437521,39.2303904 L29.6691999,39.2303904 L41.5507113,21.4586209 L53.4870422,39.2303904 L58.2133333,39.2303904 L44.092653,18.6683692 L57.0789897,0" id="Fill-1" fill="#F2F2F1"></path>
                <g id="Group-4">
                    <mask id="mask-2" fill="white">
                        <use xlink:href="#path-1"></use>
                    </mask>
                    <g id="Clip-3"></g>
                    <polygon id="Fill-2" fill="#1F3340" mask="url(#mask-2)" points="-4.70909447 -3.07204843 62.9442389 -3.07204843 62.9442389 42.1727081 -4.70909447 42.1727081"></polygon>
                </g>
            </g>
        </g>
    </g>
</svg>